HIERARCHY
ROOT Hips
{
	OFFSET 0.000000 0.000000 0.000000
	CHANNELS 6 Xposition Yposition Zposition Zrotation Yrotation Xrotation 
	JOINT LHipJoint
	{
		OFFSET 0.000000 0.000000 0.000000
		CHANNELS 3 Zrotation Yrotation Xrotation
		JOINT LeftUpLeg
		{
			OFFSET 1.363060 -1.794630 0.839290
			CHANNELS 3 Zrotation Yrotation Xrotation
			JOINT LeftLeg
			{
				OFFSET 2.448110 -6.726130 0.000000
				CHANNELS 3 Zrotation Yrotation Xrotation
				JOINT LeftFoot
				{
					OFFSET 2.562200 -7.039590 0.000000
					CHANNELS 3 Zrotation Yrotation Xrotation
					JOINT LeftToeBase
					{
						OFFSET 0.157640 -0.433110 2.322550
						CHANNELS 3 Zrotation Yrotation Xrotation
						End Site
						{
							OFFSET 0.000000 0.000000 0.000000
						}
					}
				}
			}
		}
	}
	JOINT RHipJoint
	{
		OFFSET 0.000000 0.000000 0.000000
		CHANNELS 3 Zrotation Yrotation Xrotation
		JOINT RightUpLeg
		{
			OFFSET -1.305520 -1.794630 0.839290
			CHANNELS 3 Zrotation Yrotation Xrotation
			JOINT RightLeg
			{
				OFFSET -2.542530 -6.985550 0.000000
				CHANNELS 3 Zrotation Yrotation Xrotation
				JOINT RightFoot
				{
					OFFSET -2.568260 -7.056230 0.000000
					CHANNELS 3 Zrotation Yrotation Xrotation
					JOINT RightToeBase
					{
						OFFSET -0.164730 -0.452590 2.363150
						CHANNELS 3 Zrotation Yrotation Xrotation
						End Site
						{
							OFFSET 0.000000 0.000000 0.000000
						}
					}
				}
			}
		}
	}
}
MOTION
Frames: 17
Frame Time: 0.008333
8.339831 17.317083 1.684692 9.211693 80.489662 36.884999 -9.103244 0.307913 6.404128 -5.124719 -7.259085 -51.986719 -2.437164 -0.609209 17.818389 1.616334 5.770268 -8.558847 0.329400 0.000000 -30.300200 10.159349 -4.323041 2.336007 3.843942 -0.015379 -3.662787 1.294576 -0.321663 5.069671 0.023605 1.045500 22.316935 0.215500 -0.000000 -68.955800
8.661923 17.294414 1.700711 8.133298 79.871604 35.580761 -9.005670 0.221693 6.605900 -4.754521 -7.081733 -51.160707 -2.675909 -1.201193 12.606423 1.463270 5.132799 -8.143412 0.368301 -0.000000 -31.493900 10.196758 -4.409724 2.205037 3.388352 0.024225 -2.038138 1.208690 -0.381378 4.141695 -0.022909 1.311298 24.500203 0.440500 0.000000 -68.094000
8.984714 17.258746 1.713859 6.958380 79.225049 34.045722 -8.958258 0.110782 6.711865 -4.439325 -6.694548 -50.336548 -2.848436 -1.702683 8.127710 1.274665 4.433412 -7.508624 0.413700 -0.000000 -32.490700 10.209405 -4.495595 2.062505 2.951361 0.017941 -0.316538 1.133439 -0.445707 3.363577 -0.064086 1.685562 26.457793 0.733100 -0.000000 -66.466700
9.307903 17.210181 1.725045 5.919833 78.588671 32.539560 -8.945073 0.002520 6.715928 -4.334760 -6.075263 -49.718111 -2.998092 -2.060632 4.731753 1.044159 3.566318 -6.721908 0.447400 0.000000 -33.441400 10.213565 -4.586721 1.923803 2.499627 -0.071714 1.421751 1.063891 -0.514363 2.777605 -0.099568 2.168655 28.167707 1.096700 -0.000000 -64.239000
9.631013 17.149679 1.735840 5.312639 78.014072 31.409764 -8.940735 -0.080316 6.654662 -4.476762 -5.368445 -49.418065 -3.147098 -2.267184 2.532271 0.799607 2.619995 -5.833126 0.464700 -0.000000 -34.499300 10.234384 -4.684605 1.794125 1.975106 -0.296043 3.067392 0.990794 -0.588502 2.432868 -0.132659 2.753569 29.613782 1.530300 0.000000 -61.678801
9.953432 17.078619 1.747659 5.328347 77.550640 30.910047 -8.925505 -0.124866 6.587225 -4.757901 -4.820585 -49.446169 -3.280367 -2.339544 1.455773 0.592318 1.853704 -4.862665 0.482900 0.000000 -35.720300 10.293696 -4.786846 1.671167 1.332924 -0.687393 4.518291 0.904587 -0.669262 2.372422 -0.169743 3.400727 30.791395 2.011701 -0.000000 -59.089499
10.274236 16.998226 1.760940 5.938887 77.231030 31.052204 -8.894172 -0.122831 6.536427 -5.139896 -4.511305 -49.847843 -3.396093 -2.278862 1.526303 0.438238 1.340021 -3.878244 0.508700 0.000000 -37.063400 10.396367 -4.893845 1.561290 0.584999 -1.227947 5.716009 0.800428 -0.755073 2.620165 -0.218068 4.011925 31.715502 2.478500 0.000000 -56.774900
10.592617 16.909897 1.775979 7.104463 77.066149 31.814819 -8.844124 -0.072757 6.507425 -5.615137 -4.459470 -50.622775 -3.487583 -2.087290 2.718788 0.339716 1.097148 -2.907692 0.552100 0.000000 -38.509900 10.547251 -5.004709 1.468611 -0.253483 -1.902319 6.622364 0.675337 -0.845209 3.211911 -0.283222 4.497729 32.394888 2.870000 0.000001 -54.962500
10.907666 16.814859 1.792166 8.658736 77.040355 33.016626 -8.782607 0.022419 6.461788 -6.286470 -4.501663 -51.808025 -3.563272 -1.747651 5.117245 0.264287 0.924677 -2.013963 0.590900 -0.000000 -39.948300 10.736916 -5.119929 1.403530 -1.132238 -2.664713 7.242661 0.530913 -0.937362 4.173849 -0.368639 4.752187 32.841480 3.112900 0.000000 -53.783100
11.218590 16.714288 1.808154 10.352197 77.114976 34.375865 -8.726607 0.149723 6.354589 -7.206437 -4.459621 -53.382354 -3.606996 -1.246822 8.739931 0.185143 0.651654 -1.252671 0.595500 -0.000000 -41.100000 10.944292 -5.236210 1.371431 -1.985926 -3.457386 7.606017 0.371685 -1.029617 5.536142 -0.475045 4.682946 33.055916 3.142200 0.000001 -53.242400
11.524578 16.609730 1.822436 11.926349 77.237585 35.605211 -8.695545 0.280180 6.167102 -8.271048 -4.272830 -55.200508 -3.564959 -0.608876 13.385147 0.109518 0.311802 -0.644920 0.563600 -0.000000 -41.559999 11.142429 -5.342470 1.365639 -2.754995 -4.211207 7.755009 0.201874 -1.121450 7.315152 -0.602915 4.215474 33.040479 2.908300 0.000000 -53.266399
11.824861 16.503477 1.834136 13.238358 77.354911 36.546643 -8.696194 0.378121 5.914131 -9.305384 -3.989852 -57.036255 -3.390803 0.092261 18.649313 0.066173 0.066760 -0.204407 0.520500 0.000000 -40.975100 11.314962 -5.422029 1.369295 -3.425487 -4.886669 7.705265 0.024086 -1.214463 9.539947 -0.751759 3.336802 32.775863 2.405800 0.000000 -53.670700
12.118851 16.398703 1.843651 14.314580 77.428077 37.232436 -8.715413 0.420928 5.630035 -10.189227 -3.704018 -58.665533 -3.090138 0.759387 24.046060 0.078665 0.058119 0.041396 0.495900 0.000000 -39.326900 11.465870 -5.458821 1.366610 -4.024487 -5.464343 7.446054 -0.160264 -1.310669 12.221178 -0.922624 2.073860 32.248065 1.663000 -0.000000 -54.241600
12.406207 16.299042 1.852151 15.270227 77.436859 37.796248 -8.731028 0.411313 5.345262 -10.915308 -3.478477 -59.949161 -2.718542 1.322524 29.185168 0.148127 0.308892 0.032386 0.499700 0.000000 -36.957700 11.613383 -5.443793 1.351578 -4.592241 -5.938481 6.946936 -0.347059 -1.411789 15.349273 -1.116354 0.484031 31.449541 0.734300 -0.000000 -54.749800
12.686818 16.208031 1.860799 16.202374 77.374794 38.356769 -8.726048 0.369503 5.077974 -11.535802 -3.336407 -60.837559 -2.341297 1.756997 33.830263 0.261013 0.762638 -0.300195 0.522500 -0.000000 -34.397700 11.775093 -5.376725 1.328495 -5.151596 -6.300419 6.180831 -0.528346 -1.519692 18.882212 -1.332251 -1.363360 30.389976 -0.314800 -0.000000 -54.983400
12.960892 16.128781 1.870193 17.122779 77.240509 38.941365 -8.695866 0.318800 4.834961 -12.102507 -3.268544 -61.340584 -2.005384 2.071286 37.878068 0.400910 1.338868 -1.008363 0.543500 -0.000000 -32.124300 11.955981 -5.264699 1.306552 -5.695158 -6.534110 5.144307 -0.694918 -1.637101 22.740136 -1.567348 -3.397616 29.102948 -1.419300 0.000000 -54.817899
13.228693 16.063711 1.880559 18.014763 77.034134 39.536573 -8.641771 0.277345 4.614447 -12.653577 -3.254605 -61.483470 -1.735594 2.286059 41.302889 0.556035 1.971921 -2.109866 0.540200 -0.000000 -30.423400 12.154618 -5.118129 1.290724 -6.214007 -6.642044 3.859032 -0.839992 -1.768371 26.819424 -1.815178 -5.527892 27.634835 -2.507099 0.000000 -54.198500
